# xmcd
# 
# Track frame offsets:
#     150
#     14485
#     31322
#     49540
#     67708
#     86351
#     103638
#     130379
#     146656
#     163297
#     183869
# 
# Disc length: 2785
# 
# Revision: 2
# Processed by: cddbd v1.5.2PL0 Copyright (c) Steve Scherf et al.
# Submitted via: fre:ac v1.0.17
# 
DISCID=8b0adf0b
DTITLE=Radney Foster - Del Rio, Texas Revisited: Unplugged and Lonesome
DYEAR=2012
DGENRE=Country
TTITLE0=Just Call Me Lonesome
TTITLE1=Don't Say Goodbye
TTITLE2=Easier Said Than Done
TTITLE3=A Fine Line
TTITLE4=Me and John R.
TTITLE5=Nobody Wins
TTITLE6=Old Silver
TTITLE7=Lousiana Blue
TTITLE8=Closing Time
TTITLE9=Hammer and Nails
TTITLE10=Went For a Ride
EXTD=
EXTT0=
EXTT1=
EXTT2=
EXTT3=
EXTT4=
EXTT5=
EXTT6=
EXTT7=
EXTT8=
EXTT9=
EXTT10=
PLAYORDER=
